<svg xmlns="http://www.w3.org/2000/svg" width="33" height="23" viewBox="0 0 33 23">
  <defs>
    <style>
      .cls-1 {
        fill: #6a8bb4;
        fill-rule: evenodd;
      }
    </style>
  </defs>
  <path id="phone_icon" data-name="phone icon" class="cls-1" d="M32.98,6.057c-0.016-.671-0.167-3.55-1.575-4.084C28.5,0.875,21.34,0,16.494,0S4.482,0.875,1.582,1.973C0.173,2.507.023,5.39,0.007,6.059a1.812,1.812,0,0,0,.012.559L0.295,7.985A1.394,1.394,0,0,0,1.929,9.077L8.287,7.859a1.381,1.381,0,0,0,1.1-1.617L9.061,4.554c0.586-.081,1.175-0.157,1.757-0.227l-0.19,2.731s-9.483,5-9.483,6.861V23h30.7V13.919c0-1.8-9.482-6.861-9.482-6.861l-0.19-2.731c0.583,0.07,1.171.147,1.757,0.227L23.6,6.242a1.381,1.381,0,0,0,1.1,1.617l6.358,1.218a1.394,1.394,0,0,0,1.635-1.093l0.276-1.367A1.818,1.818,0,0,0,32.98,6.057ZM16.494,3.908c0.59,0,2.849.1,3.519,0.189,0-.012-0.219,2.7-0.224,2.691H13.2l-0.2-2.693C14.272,3.978,15.47,3.908,16.494,3.908Zm0,15.369a4.267,4.267,0,0,1-4.433-4.08,4.267,4.267,0,0,1,4.433-4.08,4.267,4.267,0,0,1,4.433,4.08A4.267,4.267,0,0,1,16.494,19.276Z"/>
</svg>
